<svg id="Capa_1" data-name="Capa 1" xmlns="http://www.w3.org/2000/svg" viewBox="0 0 657.45 217.76"><defs><style>.cls-1{fill:#02539b;}.cls-2{fill:#7baa38;}</style></defs><path class="cls-1" d="M379.88,189.14v3.29c-1.48.44-59.84.53-62.08.08v-3.23c.84-.05,1.67-.14,2.49-.13a28.16,28.16,0,0,0,8.43-.8c5.16-1.54,8.45-4.78,9.13-10.24a80.83,80.83,0,0,0,.79-9.44c.08-15.29,0-30.58,0-45.87,0-.39,0-.79,0-1.18a1,1,0,0,0-1.1-1.13c-.53,0-1.05,0-1.58,0H272.22c-2.65,0-2.66,0-2.66,2.59,0,15-.05,29.92,0,44.88,0,3.62.41,7.23.74,10.83a9.36,9.36,0,0,0,5,7.44,19.9,19.9,0,0,0,10.32,2.94h4.93a7.27,7.27,0,0,1,.29,1.14c.2,2.29,0,2.51-2.26,2.51H228.41v-3.62c1.41,0,2.77,0,4.14,0a22.23,22.23,0,0,0,6.84-.81,16,16,0,0,0,2.23-.8c3.67-1.65,6.13-4.34,6.71-8.41a62.38,62.38,0,0,0,.84-8.83q.12-42.6.07-85.22c0-6.85,0-13.7-.07-20.56a76.88,76.88,0,0,0-.74-7.85,9,9,0,0,0-4.61-6.78,19.31,19.31,0,0,0-10.1-3h-5.31V43.37c.7,0,1.34-.12,2-.12h59.21a1.06,1.06,0,0,1,1.25,1.17c0,.71,0,1.42,0,2.33-1.11,0-2,.13-2.9.12a23.9,23.9,0,0,0-8,.82c-.12,0-.26.05-.38.09-7,2.39-9,5.46-9.55,12.23-.32,3.94-.39,7.9-.41,11.85-.05,12.39,0,24.78,0,37.17,0,.53,0,1,0,1.58,0,2.17.05,2.21,2.23,2.21q32.37,0,64.74,0c.59,0,1.17-.07,2-.11.07-.78.19-1.47.19-2.17,0-14.63,0-29.26-.05-43.89a94.34,94.34,0,0,0-.75-9.64,9.09,9.09,0,0,0-4.44-6.91A19.36,19.36,0,0,0,323,46.88h-4.87c-.65-1.51-.65-1.51-.26-3.3,1.44-.43,59.9-.5,62,0v3.08a13.74,13.74,0,0,1-4.69.24A20.84,20.84,0,0,0,365.82,49a9.91,9.91,0,0,0-6.1,7.94c-.29,2.08-.5,4.18-.66,6.28C359,64.62,359,66,359,67.4q0,50.61,0,101.23c0,3.54.42,7.09.77,10.62a8.89,8.89,0,0,0,4.56,6.81,19.64,19.64,0,0,0,10.09,3.07C376.22,189.17,378,189.14,379.88,189.14Z"/><path class="cls-1" d="M647.43,91.06c-.48,0-.87.11-1.26.11-1.89,0-1.9,0-2.21-1.91a73.19,73.19,0,0,0-4.41-16.76C634,59.35,624,51.8,610.21,48.85a29.94,29.94,0,0,0-15.44.47c-8.46,2.66-14.49,8-17.15,16.61-1.94,6.28-.62,12.12,3.3,17.36A36.57,36.57,0,0,0,587.84,90a176,176,0,0,0,20.92,13.51c8.4,4.82,16.83,9.6,25.16,14.55a57.84,57.84,0,0,1,12.47,9.67,38.81,38.81,0,0,1,.3,54,43.06,43.06,0,0,1-25.13,13.48A65.39,65.39,0,0,1,590,192.67c-5.24-1.74-10.57-3.22-15.89-4.74a8.89,8.89,0,0,0-3.13-.22,5.08,5.08,0,0,0-4.59,3.23,22,22,0,0,0-1,3.2c-.46,1.89-.55,2-2.52,1.89a8,8,0,0,1-.92-.16c-.47-1.62-.53-48.43,0-50.48h3c.27,1.2.51,2.41.82,3.6,1.06,4.07,2,8.17,3.25,12.19,3.26,10.62,10.42,17.79,20.28,22.51a45.92,45.92,0,0,0,24.06,4.17c7.1-.59,13.44-3.07,18.53-8.31,7.38-7.61,8.9-17.7,4-27.11a32.23,32.23,0,0,0-11.74-12.58c-6.24-3.94-12.6-7.69-19-11.4-8.38-4.87-16.78-9.71-24.74-15.25a56.3,56.3,0,0,1-12.72-11.78,35.87,35.87,0,0,1-7.58-24.37c.55-10.78,5.26-19.56,13.27-26.68a40.67,40.67,0,0,1,21.79-10c10.74-1.52,21,.34,30.89,4.54,2.6,1.1,5.23,2.19,7.92,3a10.39,10.39,0,0,0,4.09.27,5.12,5.12,0,0,0,4.08-2.81,27.15,27.15,0,0,0,1.55-3.83c.57-1.67.61-1.75,2.34-1.7a10.47,10.47,0,0,1,1.3.17C647.78,41.65,647.86,88.82,647.43,91.06Z"/><path class="cls-1" d="M491.67,46.88v-3.3c1.82-.48,49.72-.45,51.34,0v3.28c-1,0-1.93,0-2.83,0-2,.09-3.95.1-5.9.36a14.34,14.34,0,0,0-11.7,12.52c-.32,3.87-.67,7.75-.69,11.62-.07,18.19,0,36.38,0,54.57,0,6.65-.13,13.31-.52,19.94a79.21,79.21,0,0,1-3.15,18.25c-2.53,8.44-7.56,15.12-14.31,20.64a48.29,48.29,0,0,1-22.28,10,98.22,98.22,0,0,1-23,1.2,70.58,70.58,0,0,1-17.7-2.84C424.51,188,414.31,177,410.23,160.47a84.64,84.64,0,0,1-1.8-14.68c-.89-13.36-.39-26.74-.46-40.11-.07-12.13,0-24.25,0-36.38a52.27,52.27,0,0,0-1.14-11.77c-.19-.83-.45-1.65-.71-2.46a10.6,10.6,0,0,0-7.68-7.3,30,30,0,0,0-5.84-.86c-1.89-.14-3.79,0-5.86,0V43.46a11.37,11.37,0,0,1,1.51-.2q29.79,0,59.59,0c1.78,0,1.87.12,1.84,2,0,.44-.08.89-.15,1.56l-2.14.12a75.18,75.18,0,0,0-7.67.45,12.11,12.11,0,0,0-10.52,10.34,45.2,45.2,0,0,0-.83,8c-.06,24.71-.14,49.43,0,74.14a89.35,89.35,0,0,0,3.19,23.81c3.41,12,11.62,19.12,23.46,22.27,6.18,1.65,12.51,1.58,18.85.9a49.73,49.73,0,0,0,20.76-7.1,33.24,33.24,0,0,0,16.3-24.26A120.39,120.39,0,0,0,512.56,137c.06-22.6.17-45.2.17-67.8a72,72,0,0,0-.91-11.8c-1-6.15-5.08-8.9-10.26-10a25.07,25.07,0,0,0-4.51-.44C495.35,46.83,493.64,46.88,491.67,46.88Z"/><path class="cls-1" d="M106.15,0a106.88,106.88,0,0,1,94,54.91,110,110,0,0,1,12.7,36.77A107.66,107.66,0,0,1,214,114c-2.11,42.25-27.09,77.14-61.79,93.59a107.25,107.25,0,0,1-48.87,10.13c-16.86-.73-32.84-4.87-47.51-13.27C27.34,188.06,9.61,163.7,2.42,131.67A105,105,0,0,1,.17,103,109,109,0,0,1,53.09,14.79,104.75,104.75,0,0,1,89.61,1.37,85.35,85.35,0,0,1,106.15,0ZM4.29,110c.09,1.48.18,4.25.46,7,.4,3.86.77,7.73,1.45,11.55a101.38,101.38,0,0,0,11.51,31.81A104.05,104.05,0,0,0,43.57,191a101.15,101.15,0,0,0,27.71,15.83,97.35,97.35,0,0,0,28.31,6.22,108.3,108.3,0,0,0,17.55-.22,100,100,0,0,0,34.1-9.61,102.29,102.29,0,0,0,29.93-22,104.41,104.41,0,0,0,17.53-25,106,106,0,0,0,11.08-42.92,103.14,103.14,0,0,0-1.24-21.06A104.76,104.76,0,0,0,196,56.42,103.26,103.26,0,0,0,170.11,26.3,101.67,101.67,0,0,0,112.22,4.41a97.93,97.93,0,0,0-20.3,1,100,100,0,0,0-28.63,8.81,102,102,0,0,0-39.91,34C10.72,66.4,4.5,86.64,4.29,110Z"/><path class="cls-2" d="M4.29,110C4.5,86.64,10.72,66.4,23.38,48.25a102,102,0,0,1,39.91-34A100,100,0,0,1,91.92,5.46a97.93,97.93,0,0,1,20.3-1A101.67,101.67,0,0,1,170.11,26.3,103.26,103.26,0,0,1,196,56.42a104.76,104.76,0,0,1,12.58,35.79,103.14,103.14,0,0,1,1.24,21.06,106,106,0,0,1-11.08,42.92,104.41,104.41,0,0,1-17.53,25,102.29,102.29,0,0,1-29.93,22,100,100,0,0,1-34.1,9.61,108.3,108.3,0,0,1-17.55.22,97.35,97.35,0,0,1-28.31-6.22A101.15,101.15,0,0,1,43.57,191a104.05,104.05,0,0,1-25.86-30.62A101.38,101.38,0,0,1,6.2,128.57c-.68-3.82-1-7.69-1.45-11.55C4.47,114.28,4.38,111.51,4.29,110ZM153.93,25.1c-1.15-.06-2.11-.16-3.07-.16H64.14a13.85,13.85,0,0,0-1.58,0,12.56,12.56,0,0,0-1.45.36c.5.92.88,1.67,1.3,2.41Q67.71,37.1,73,46.47,84.49,66.68,96,86.87q5.13,9,10.26,18c.4.7.9,1.35,1.39,2.1C109.39,104.76,153.45,26.94,153.93,25.1Zm-44.65,85c1.35,1.32,78.5,46.55,80.13,46.93a3.56,3.56,0,0,0,.24-.89q0-46.14,0-92.29a2,2,0,0,0-.26-.68C187.64,63.52,110.63,108.68,109.28,110.1Zm-84-47.25-.54.29c-.05.9-.15,1.79-.15,2.68q0,38,0,76.1,0,6.51,0,13c0,.69.11,1.37.19,2.4,1.06-.6,1.8-1,2.52-1.41l24.4-14.32,52-30.55a17.87,17.87,0,0,0,1.58-1.22ZM61.1,192.08c.45.28.55.39.67.41a4.15,4.15,0,0,0,.79.08h90.07a3.53,3.53,0,0,0,.78-.13.33.33,0,0,0,.17-.1,1.73,1.73,0,0,0,.18-.29,8.24,8.24,0,0,0-.46-1.14q-5-9-10.12-17.9-9.7-17.1-19.44-34.2L108.6,112.16a18.33,18.33,0,0,0-1.24-1.59Z"/><path class="cls-1" d="M153.93,25.1c-.48,1.84-44.54,79.66-46.31,81.92-.49-.75-1-1.4-1.39-2.1q-5.15-9-10.26-18Q84.49,66.67,73,46.47,67.71,37.1,62.41,27.72c-.42-.74-.8-1.49-1.3-2.41A12.56,12.56,0,0,1,62.56,25a13.85,13.85,0,0,1,1.58,0h86.72C151.82,24.94,152.78,25,153.93,25.1Z"/><path class="cls-1" d="M109.28,110.1c1.35-1.42,78.36-46.58,80.09-46.93a2,2,0,0,1,.26.68q0,46.14,0,92.29a3.56,3.56,0,0,1-.24.89C187.78,156.65,110.63,111.42,109.28,110.1Z"/><path class="cls-1" d="M25.23,62.85l80,47a17.87,17.87,0,0,1-1.58,1.22l-52,30.55L27.25,156c-.72.42-1.46.81-2.52,1.41-.08-1-.19-1.71-.19-2.4q0-6.53,0-13,0-38.05,0-76.1c0-.89.1-1.78.15-2.68Z"/><path class="cls-1" d="M61.1,192.08l46.26-81.51a18.33,18.33,0,0,1,1.24,1.59l15.14,26.64q9.72,17.1,19.44,34.2,5.08,8.94,10.12,17.9a8.24,8.24,0,0,1,.46,1.14,1.73,1.73,0,0,1-.18.29.33.33,0,0,1-.17.1,3.53,3.53,0,0,1-.78.13H62.56a4.15,4.15,0,0,1-.79-.08C61.65,192.47,61.55,192.36,61.1,192.08Z"/></svg>